<svg width="138" height="77" viewBox="0 0 138 77" fill="none" xmlns="http://www.w3.org/2000/svg">
<path d="M116 70.5C116 70.2239 116.224 70 116.5 70H137.5C137.776 70 138 70.2239 138 70.5C138 70.7761 137.776 71 137.5 71H116.5C116.224 71 116 70.7761 116 70.5Z" fill="#9E9E9E"/>
<path d="M88.0928 67.4912C88.0928 67.2178 87.93 67.0811 87.6045 67.0811C86.9827 67.0811 86.418 67.3691 85.9102 67.9453C85.6107 68.2839 85.4007 68.6501 85.2803 69.0439C85.2217 69.236 85.1924 69.4053 85.1924 69.5518C85.1924 69.6982 85.2087 69.8154 85.2412 69.9033C85.277 69.988 85.321 70.0579 85.373 70.1133C85.4837 70.2305 85.6123 70.276 85.7588 70.25C85.9183 70.1849 86.0583 70.1523 86.1787 70.1523C86.3024 70.1523 86.4001 70.1686 86.4717 70.2012C86.5465 70.2305 86.6068 70.2679 86.6523 70.3135C86.7467 70.4046 86.7939 70.4925 86.7939 70.5771C86.7939 70.7432 86.7386 70.8294 86.6279 70.8359C86.4587 70.8522 86.2812 70.8994 86.0957 70.9775C85.9102 71.0557 85.723 71.1582 85.5342 71.2852C85.3454 71.4089 85.1777 71.5488 85.0312 71.7051C84.696 72.0632 84.5283 72.4229 84.5283 72.7842C84.5283 72.9567 84.569 73.0869 84.6504 73.1748C84.7871 73.3278 84.9499 73.4043 85.1387 73.4043C85.3275 73.4043 85.5114 73.3685 85.6904 73.2969C85.8727 73.222 86.0371 73.1325 86.1836 73.0283C86.4049 72.8688 86.6198 72.6654 86.8281 72.418C86.9323 72.2943 87.0234 72.2324 87.1016 72.2324C87.1797 72.2324 87.2383 72.2796 87.2773 72.374C87.3197 72.4652 87.3408 72.5628 87.3408 72.667C87.3408 72.8818 87.3001 73.0413 87.2188 73.1455C87.1374 73.2464 87.0348 73.349 86.9111 73.4531C86.7907 73.554 86.6458 73.6484 86.4766 73.7363C86.0697 73.9447 85.6335 74.0488 85.168 74.0488C84.3835 74.0488 83.8464 73.7917 83.5566 73.2773C83.4525 73.0853 83.4004 72.8883 83.4004 72.6865C83.4004 72.4847 83.4297 72.2975 83.4883 72.125C83.5501 71.9525 83.6283 71.793 83.7227 71.6465C83.8171 71.4967 83.9229 71.3633 84.04 71.2461C84.1572 71.1257 84.2728 71.0215 84.3867 70.9336C84.6113 70.7578 84.7969 70.6585 84.9434 70.6357C84.5755 70.4893 84.3281 70.2044 84.2012 69.7812C84.1621 69.6445 84.1426 69.4785 84.1426 69.2832C84.1426 69.0879 84.18 68.873 84.2549 68.6387C84.3298 68.401 84.4355 68.1748 84.5723 67.96C84.709 67.7419 84.8717 67.5384 85.0605 67.3496C85.2493 67.1608 85.4577 66.9964 85.6855 66.8564C86.1771 66.557 86.6947 66.4072 87.2383 66.4072C87.8079 66.4072 88.2327 66.5488 88.5127 66.832C88.7373 67.0599 88.8496 67.3512 88.8496 67.7061C88.8496 68.1097 88.6803 68.5182 88.3418 68.9316C88.1367 69.179 87.9512 69.3467 87.7852 69.4346C87.6224 69.5225 87.4938 69.5713 87.3994 69.5811C87.3083 69.5876 87.222 69.5762 87.1406 69.5469C87.0625 69.5143 86.9941 69.472 86.9355 69.4199C86.8021 69.2995 86.7354 69.1904 86.7354 69.0928C86.7354 68.9723 86.7777 68.8796 86.8623 68.8145L87.3018 68.502C87.8291 68.1146 88.0928 67.7777 88.0928 67.4912Z" fill="#9E9E9E"/>
<path d="M88.4688 73.5264C88.4199 73.4189 88.3955 73.292 88.3955 73.1455C88.3955 72.999 88.4183 72.8379 88.4639 72.6621C88.5094 72.4831 88.568 72.3008 88.6396 72.1152C88.7113 71.9297 88.791 71.7409 88.8789 71.5488L89.1279 70.9824C89.4502 70.237 89.569 69.7975 89.4844 69.6641C89.4453 69.6022 89.3704 69.5404 89.2598 69.4785C89.224 69.4557 89.2061 69.4167 89.2061 69.3613C89.2061 69.3027 89.2288 69.2474 89.2744 69.1953C89.3232 69.1432 89.3867 69.0977 89.4648 69.0586C89.6211 68.9837 89.779 68.9463 89.9385 68.9463C90.098 68.9463 90.2184 68.9642 90.2998 69C90.3844 69.0326 90.4544 69.0749 90.5098 69.127C90.6139 69.2344 90.666 69.3646 90.666 69.5176C90.666 69.6706 90.6367 69.8431 90.5781 70.0352C90.5195 70.2272 90.4463 70.429 90.3584 70.6406C90.2705 70.8522 90.1745 71.0687 90.0703 71.29L89.7822 71.9297C89.5771 72.4017 89.4746 72.7142 89.4746 72.8672C89.4746 73.1667 89.5804 73.3164 89.792 73.3164C90.3356 73.3164 90.8451 72.9941 91.3203 72.3496C91.597 71.9753 91.7956 71.5684 91.916 71.1289C91.9714 70.9206 91.999 70.7318 91.999 70.5625C91.999 70.39 91.9925 70.2467 91.9795 70.1328C91.9697 70.0189 91.9518 69.918 91.9258 69.8301C91.8835 69.6738 91.8118 69.5387 91.7109 69.4248C91.6426 69.3402 91.6735 69.2409 91.8037 69.127C91.9469 69.0065 92.1504 68.9463 92.4141 68.9463C92.5768 68.9463 92.7201 69.0228 92.8438 69.1758C93 69.3581 93.0781 69.6201 93.0781 69.9619C93.0781 70.3005 93.0277 70.6341 92.9268 70.9629C92.8258 71.2884 92.6875 71.6025 92.5117 71.9053C92.3359 72.2048 92.1276 72.4847 91.8867 72.7451C91.6491 73.0055 91.3919 73.2318 91.1152 73.4238C90.5228 73.8405 89.9303 74.0488 89.3379 74.0488C88.9115 74.0488 88.6217 73.8747 88.4688 73.5264Z" fill="#9E9E9E"/>
<path d="M93.6055 72.291C93.6185 72.0078 93.6657 71.7376 93.7471 71.4805C93.8284 71.2201 93.9375 70.9694 94.0742 70.7285C94.2109 70.4844 94.3704 70.2549 94.5527 70.04C94.7383 69.8219 94.9385 69.6315 95.1533 69.4688C95.6188 69.1204 96.0892 68.9463 96.5645 68.9463C97.1211 68.9463 97.4922 69.1758 97.6777 69.6348C97.7428 69.791 97.7738 69.9766 97.7705 70.1914C97.7673 70.403 97.7266 70.5999 97.6484 70.7822C97.5703 70.9613 97.4613 71.1257 97.3213 71.2754C97.1846 71.4219 97.0202 71.5537 96.8281 71.6709C96.6393 71.7881 96.4326 71.8874 96.208 71.9688C95.7458 72.1315 95.251 72.2161 94.7236 72.2227C94.7106 72.2682 94.7025 72.3366 94.6992 72.4277C94.696 72.5189 94.7057 72.6214 94.7285 72.7354C94.7513 72.846 94.7904 72.9453 94.8457 73.0332C94.9629 73.2285 95.1322 73.3262 95.3535 73.3262C95.7311 73.3262 96.099 73.2155 96.457 72.9941C96.584 72.9193 96.6865 72.8428 96.7646 72.7646C96.846 72.6833 96.916 72.6426 96.9746 72.6426C97.0332 72.6426 97.0837 72.6784 97.126 72.75C97.1716 72.8184 97.1943 72.8965 97.1943 72.9844C97.1943 73.1569 97.1455 73.3066 97.0479 73.4336C96.6377 73.8438 96.0273 74.0488 95.2168 74.0488C94.7383 74.0488 94.3542 73.9056 94.0645 73.6191C93.7389 73.2936 93.5859 72.8509 93.6055 72.291ZM96.457 69.5957C96.1152 69.5957 95.7865 69.8301 95.4707 70.2988C95.2038 70.7025 94.9889 71.181 94.8262 71.7344C95.3698 71.679 95.8418 71.4642 96.2422 71.0898C96.61 70.7383 96.7939 70.4014 96.7939 70.0791C96.7939 69.7568 96.6816 69.5957 96.457 69.5957Z" fill="#9E9E9E"/>
<path d="M101.794 69.8691C101.693 69.8691 101.55 69.9668 101.364 70.1621C101.179 70.3542 101.018 70.5299 100.881 70.6895L100.466 71.1875L99.665 72.208C99.4762 72.5661 99.3281 72.8639 99.2207 73.1016L98.957 73.668C98.8887 73.8079 98.8284 73.9072 98.7764 73.9658C98.7275 74.0212 98.6592 74.0488 98.5713 74.0488C98.4867 74.0488 98.4036 74.0326 98.3223 74C98.2441 73.9707 98.1758 73.9316 98.1172 73.8828C97.9935 73.7786 97.9316 73.6647 97.9316 73.541C97.9316 73.4922 97.9674 73.3962 98.0391 73.2529L98.2246 72.8574C98.2832 72.7402 98.3516 72.5905 98.4297 72.4082L98.7031 71.7393C99.0872 70.779 99.2793 70.1589 99.2793 69.8789C99.2793 69.7292 99.2305 69.6185 99.1328 69.5469L99.0352 69.4785C99.0026 69.4557 98.9863 69.4167 98.9863 69.3613C98.9863 69.3027 99.0075 69.2474 99.0498 69.1953C99.0954 69.1432 99.154 69.0977 99.2256 69.0586C99.3721 68.9837 99.5186 68.9463 99.665 68.9463C99.8148 68.9463 99.9303 68.9626 100.012 68.9951C100.093 69.0277 100.161 69.0716 100.217 69.127C100.337 69.2409 100.397 69.3597 100.397 69.4834C100.397 69.6071 100.381 69.7324 100.349 69.8594C100.319 69.9831 100.28 70.11 100.231 70.2402C100.186 70.3672 100.137 70.4925 100.085 70.6162C100.033 70.7399 99.9857 70.8473 99.9434 70.9385L99.8457 71.1484C99.8197 71.2005 99.8132 71.2168 99.8262 71.1973C100.188 70.696 100.425 70.3737 100.539 70.2305L100.881 69.8203C101.132 69.5273 101.328 69.3337 101.472 69.2393C101.761 69.0439 101.989 68.9463 102.155 68.9463C102.321 68.9463 102.461 68.9674 102.575 69.0098C102.689 69.0521 102.788 69.1123 102.873 69.1904C103.052 69.3564 103.142 69.568 103.142 69.8252C103.142 70.0824 103.083 70.3509 102.966 70.6309C102.849 70.9108 102.746 71.1387 102.658 71.3145C102.574 71.487 102.492 71.6628 102.414 71.8418C102.17 72.3854 102.048 72.7809 102.048 73.0283C102.048 73.139 102.136 73.1943 102.312 73.1943C102.448 73.1943 102.572 73.165 102.683 73.1064C102.797 73.0479 102.87 73.0186 102.902 73.0186C102.971 73.0186 103.005 73.0527 103.005 73.1211C103.005 73.4108 102.857 73.6533 102.561 73.8486C102.362 73.9821 102.18 74.0488 102.014 74.0488C101.848 74.0488 101.709 74.0309 101.599 73.9951C101.491 73.9593 101.395 73.9023 101.311 73.8242C101.118 73.6517 101.022 73.4108 101.022 73.1016C101.022 72.724 101.141 72.252 101.379 71.6855C101.551 71.2982 101.674 71.0329 101.745 70.8896L101.911 70.543C102.012 70.3346 102.062 70.1702 102.062 70.0498C102.062 69.9294 101.973 69.8691 101.794 69.8691Z" fill="#9E9E9E"/>
<path d="M106.73 72.7207C106.825 72.7207 106.872 72.7842 106.872 72.9111C106.872 73.0186 106.84 73.1227 106.774 73.2236C106.687 73.4124 106.511 73.5915 106.247 73.7607C105.948 73.9528 105.646 74.0488 105.344 74.0488C104.82 74.0488 104.488 73.8145 104.348 73.3457C104.182 72.7891 104.431 71.609 105.095 69.8057C104.72 69.7731 104.517 69.708 104.484 69.6104C104.475 69.5811 104.47 69.5501 104.47 69.5176C104.47 69.4818 104.484 69.4411 104.514 69.3955C104.546 69.3499 104.587 69.306 104.636 69.2637C104.75 69.1693 104.865 69.1221 104.982 69.1221H105.368C105.72 68.2985 105.97 67.8298 106.12 67.7158C106.192 67.6637 106.271 67.6377 106.359 67.6377C106.447 67.6377 106.521 67.6491 106.579 67.6719C106.638 67.6947 106.69 67.7272 106.735 67.7695C106.84 67.8672 106.892 67.9762 106.892 68.0967C106.892 68.1618 106.872 68.2367 106.833 68.3213L106.472 69.1074H106.589C106.791 69.1074 106.953 69.1058 107.077 69.1025C107.077 69.1025 107.17 69.1009 107.355 69.0977C107.417 69.0944 107.494 69.0928 107.585 69.0928C107.679 69.0928 107.727 69.127 107.727 69.1953C107.727 69.625 107.219 69.8398 106.203 69.8398H106.164L105.832 70.6992C105.458 71.7148 105.271 72.4261 105.271 72.833C105.271 72.9469 105.297 73.0365 105.349 73.1016C105.401 73.1634 105.498 73.1943 105.642 73.1943C105.785 73.1943 105.915 73.1699 106.032 73.1211C106.149 73.0723 106.252 73.0186 106.34 72.96C106.428 72.8981 106.503 72.8428 106.564 72.7939C106.63 72.7451 106.685 72.7207 106.73 72.7207Z" fill="#9E9E9E"/>
<path d="M107.248 73.1406C107.248 73.0397 107.269 72.9469 107.312 72.8623C107.357 72.7744 107.412 72.7012 107.478 72.6426C107.614 72.5156 107.757 72.4521 107.907 72.4521C108.037 72.4521 108.103 72.5189 108.103 72.6523C108.103 72.9909 108.215 73.2269 108.439 73.3604C108.521 73.4092 108.605 73.4336 108.693 73.4336C108.781 73.4336 108.856 73.4238 108.918 73.4043C108.98 73.3848 109.037 73.3538 109.089 73.3115C109.206 73.2171 109.265 73.1048 109.265 72.9746C109.265 72.8444 109.235 72.7256 109.177 72.6182C109.118 72.5075 109.045 72.3919 108.957 72.2715L108.679 71.8809C108.288 71.36 108.093 70.8799 108.093 70.4404C108.093 70.0758 108.247 69.7454 108.557 69.4492C108.908 69.1139 109.359 68.9463 109.909 68.9463C110.391 68.9463 110.767 69.0651 111.037 69.3027C111.258 69.4948 111.369 69.7145 111.369 69.9619C111.369 70.2191 111.271 70.4242 111.076 70.5771C110.9 70.7139 110.725 70.7643 110.549 70.7285C110.471 70.7122 110.41 70.6732 110.368 70.6113C110.326 70.5462 110.318 70.473 110.344 70.3916C110.37 70.3102 110.383 70.2256 110.383 70.1377C110.383 70.0498 110.367 69.9684 110.334 69.8936C110.301 69.8187 110.257 69.7552 110.202 69.7031C110.088 69.5957 109.968 69.542 109.841 69.542C109.717 69.542 109.615 69.5566 109.533 69.5859C109.452 69.612 109.38 69.651 109.318 69.7031C109.191 69.8203 109.128 69.9652 109.128 70.1377C109.128 70.307 109.157 70.4535 109.216 70.5771C109.274 70.7008 109.346 70.8245 109.431 70.9482C109.519 71.0719 109.613 71.1973 109.714 71.3242C109.815 71.4512 109.908 71.5846 109.992 71.7246C110.197 72.0534 110.3 72.3431 110.3 72.5938C110.3 72.8411 110.248 73.0495 110.144 73.2188C110.039 73.3848 109.904 73.528 109.738 73.6484C109.383 73.9121 108.986 74.0439 108.547 74.0439C108.127 74.0439 107.795 73.943 107.551 73.7412C107.349 73.5719 107.248 73.3717 107.248 73.1406Z" fill="#9E9E9E"/>
<path d="M57 70.5C57 70.2238 57.2239 70 57.5 70H78.5C78.7761 70 79 70.2238 79 70.5C79 70.7761 78.7761 71 78.5 71H57.5C57.2239 71 57 70.7761 57 70.5Z" fill="#9E9E9E"/>
<path d="M67.4709 59.8594C67.4709 58.7168 67.7968 56.9648 68.4485 54.6035C66.4088 54.6543 64.8472 54.7135 63.7639 54.7812C63.4338 55.3822 63.1334 55.9535 62.8625 56.4951L62.0754 58.0566C61.0344 60.1048 60.0992 61.4548 59.2698 62.1064C58.635 62.6143 57.9621 62.8682 57.2512 62.8682C56.7095 62.8682 56.2991 62.6904 56.0198 62.335C55.9182 62.1911 55.8589 62.0557 55.842 61.9287C55.8251 61.7933 55.8547 61.7044 55.9309 61.6621C56.9042 61.2982 57.6955 60.7438 58.3049 59.999C58.8381 59.3304 59.3713 58.5137 59.9045 57.5488L61.3391 54.9844L60.5393 55.0986C60.0315 55.1917 59.7776 55.1113 59.7776 54.8574C59.7776 54.6035 59.9299 54.3623 60.2346 54.1338C60.7678 53.736 61.2883 53.4736 61.7961 53.3467L62.342 53.2197C63.73 50.9261 64.788 49.3223 65.5158 48.4082C66.2522 47.4941 66.9208 46.7324 67.5217 46.123C68.1311 45.5137 68.7701 44.9762 69.4387 44.5107C70.9029 43.5036 72.3459 43 73.7678 43C74.1994 43 74.4914 43.0889 74.6438 43.2666C74.8977 43.5459 74.9781 43.8464 74.885 44.168C74.7919 44.4811 74.6395 44.9339 74.428 45.5264C73.0738 49.2165 72.2486 51.5016 71.9524 52.3818C72.0878 52.3734 72.2105 52.3691 72.3205 52.3691H72.5998C73.5477 52.3691 74.0556 52.4622 74.1233 52.6484C74.1402 52.7077 74.1487 52.8177 74.1487 52.9785C74.1487 53.1309 74.0979 53.3086 73.9963 53.5117C73.9032 53.7148 73.7466 53.8883 73.5266 54.0322C73.078 54.3369 72.3248 54.5146 71.2668 54.5654C70.6913 56.5544 70.3612 57.9297 70.2766 58.6914C70.2004 59.4531 70.2258 59.9694 70.3528 60.2402C70.4882 60.5026 70.6744 60.6338 70.9114 60.6338C71.1568 60.6338 71.3557 60.6126 71.508 60.5703C71.6604 60.5195 71.7958 60.4645 71.9143 60.4053L72.2444 60.2529C72.329 60.2021 72.4136 60.1768 72.4983 60.1768C72.5914 60.1768 72.6675 60.236 72.7268 60.3545C72.786 60.4645 72.8157 60.6126 72.8157 60.7988C72.8157 60.985 72.7352 61.2093 72.5744 61.4717C72.4221 61.7256 72.219 61.9541 71.9651 62.1572C71.3726 62.6312 70.704 62.8682 69.9592 62.8682C68.8166 62.8682 68.0549 62.3604 67.6741 61.3447C67.5386 60.9893 67.4709 60.6719 67.4709 60.3926V59.8594ZM64.9319 52.7754C66.4384 52.5807 67.8349 52.4665 69.1213 52.4326C69.3583 51.7048 69.6122 50.9854 69.883 50.2744L70.6701 48.2432C70.941 47.5999 71.2076 46.9906 71.4699 46.415L72.2063 44.8535C70.4459 45.3105 68.7066 46.8298 66.9885 49.4111C66.6246 49.9528 66.2691 50.5114 65.9221 51.0869L64.9319 52.7754Z" fill="white"/>
<path d="M86.7805 60.2402C86.9752 60.2402 87.0725 60.3376 87.0725 60.5322C87.0725 61.2686 86.7086 61.8864 85.9807 62.3857C85.4898 62.7074 84.9143 62.8682 84.2541 62.8682C83.7125 62.8682 83.2977 62.7412 83.01 62.4873C82.4937 62.0303 82.2356 61.4717 82.2356 60.8115C82.2356 59.9736 82.5868 58.6914 83.2893 56.9648C81.9859 58.7253 81.0718 59.8975 80.5471 60.4814C80.0224 61.057 79.5653 61.5055 79.176 61.8271C78.3296 62.5212 77.5637 62.8682 76.8782 62.8682C75.8287 62.8682 75.1304 62.4154 74.7834 61.5098C74.6819 61.2305 74.6311 60.9131 74.6311 60.5576C74.6311 60.1937 74.6903 59.7917 74.8088 59.3516C74.9358 58.903 75.0966 58.4375 75.2912 57.9551C75.4859 57.4727 75.6975 56.9775 75.926 56.4697L76.6115 54.9463C77.4918 52.9912 77.8176 51.8317 77.5891 51.4678C77.4875 51.307 77.2971 51.1462 77.0178 50.9854C76.9162 50.9261 76.8655 50.8245 76.8655 50.6807C76.8655 50.5283 76.9247 50.3844 77.0432 50.249C77.1701 50.1136 77.3309 49.9951 77.5256 49.8936C77.9403 49.6989 78.355 49.6016 78.7698 49.6016C79.1845 49.6016 79.4976 49.6481 79.7092 49.7412C79.9293 49.8258 80.107 49.9359 80.2424 50.0713C80.5217 50.3506 80.6614 50.6595 80.6614 50.998C80.6614 51.3366 80.6063 51.7174 80.4963 52.1406C80.3863 52.5553 80.2424 53.0081 80.0647 53.499C79.8869 53.9899 79.6923 54.4977 79.4807 55.0225C78.8967 56.3936 78.5032 57.2992 78.3 57.7393L77.8303 58.7168C77.5679 59.3008 77.4367 59.7113 77.4367 59.9482C77.4367 60.1852 77.4748 60.3545 77.551 60.4561C77.6272 60.5492 77.7626 60.5957 77.9573 60.5957C78.1604 60.5957 78.3931 60.5026 78.6555 60.3164C78.9179 60.1302 79.2056 59.8805 79.5188 59.5674C79.8319 59.2542 80.1578 58.8945 80.4963 58.4883C80.8349 58.0736 81.1649 57.6462 81.4865 57.2061C82.1213 56.3428 82.5868 55.6488 82.883 55.124C84.6773 51.9502 85.6337 50.2913 85.7522 50.1475C86.023 49.7835 86.2981 49.6016 86.5774 49.6016C86.8651 49.6016 87.1148 49.6354 87.3264 49.7031C87.538 49.7624 87.7199 49.8512 87.8723 49.9697C88.2278 50.2321 88.342 50.4945 88.2151 50.7568C86.15 55.0648 85.037 57.7731 84.8762 58.8818C84.8339 59.2627 84.8127 59.5251 84.8127 59.6689C84.8127 60.3122 85.0074 60.6338 85.3967 60.6338C85.7606 60.6338 86.0611 60.5703 86.2981 60.4434C86.5351 60.3079 86.6959 60.2402 86.7805 60.2402Z" fill="white"/>
<path d="M89.383 62.4365C89.2138 62.3096 89.0783 62.1699 88.9768 62.0176C88.8752 61.8568 88.8202 61.7214 88.8117 61.6113C88.8033 61.4928 88.8244 61.3532 88.8752 61.1924C88.9345 61.0231 89.0106 60.82 89.1037 60.583C90.8303 56.3343 91.6936 53.4821 91.6936 52.0264C91.6682 51.6201 91.5285 51.3324 91.2746 51.1631L91.0207 50.9854C90.9446 50.9261 90.9022 50.8245 90.8938 50.6807C90.8938 50.5283 90.9488 50.3844 91.0588 50.249C91.1688 50.1136 91.3127 49.9951 91.4905 49.8936C91.8544 49.6989 92.2268 49.6016 92.6076 49.6016C92.997 49.6016 93.2974 49.6439 93.509 49.7285C93.7291 49.8132 93.9153 49.9274 94.0676 50.0713C94.3892 50.376 94.55 50.6976 94.55 51.0361C94.5585 51.3747 94.5204 51.7174 94.4358 52.0645C94.3596 52.4115 94.2665 52.7542 94.1565 53.0928C94.0464 53.4229 93.9364 53.7402 93.8264 54.0449C93.7164 54.3411 93.6444 54.5612 93.6106 54.7051C93.5429 55.0013 93.5175 55.1875 93.5344 55.2637C93.7375 55.0859 93.8602 54.9124 93.9026 54.7432L94.3977 53.8037C95.4979 51.8232 96.5728 50.5114 97.6223 49.8682C97.927 49.6904 98.2909 49.6016 98.7141 49.6016C99.1457 49.6016 99.4927 49.7539 99.7551 50.0586C100.017 50.3548 100.153 50.6849 100.161 51.0488C100.178 51.4128 100.153 51.7174 100.085 51.9629C100.026 52.1999 99.9328 52.4242 99.8059 52.6357C99.5266 53.1097 99.188 53.3467 98.7903 53.3467C98.6802 53.3467 98.5787 53.3086 98.4856 53.2324L98.2063 52.9912C97.927 52.7458 97.6561 52.623 97.3938 52.623C97.1399 52.623 96.8267 52.7923 96.4543 53.1309C96.0904 53.4694 95.7095 53.9053 95.3117 54.4385C93.9745 56.2074 92.8827 58.1878 92.0364 60.3799L91.4778 61.8525C91.3339 62.2165 91.2069 62.4788 91.0969 62.6396C90.9869 62.792 90.8218 62.8682 90.6018 62.8682C90.3902 62.8682 90.1744 62.8258 89.9543 62.7412C89.7427 62.665 89.5523 62.5635 89.383 62.4365Z" fill="white"/>
<path d="M101.126 61.8779C100.771 61.5394 100.491 61.112 100.288 60.5957C100.085 60.071 99.9794 59.4531 99.9709 58.7422C99.9625 58.0312 100.047 57.3118 100.225 56.584C100.411 55.8561 100.669 55.1536 100.999 54.4766C101.338 53.7995 101.74 53.1647 102.205 52.5723C102.679 51.9798 103.2 51.4635 103.767 51.0234C105.002 50.0755 106.285 49.6016 107.614 49.6016C109.357 49.6016 110.538 50.3675 111.155 51.8994C111.596 53.0081 111.621 54.3496 111.232 55.9238C110.876 57.3711 110.225 58.6999 109.277 59.9102C108.337 61.1204 107.228 61.9795 105.95 62.4873C105.307 62.7412 104.672 62.8682 104.046 62.8682C103.428 62.8682 102.874 62.7878 102.383 62.627C101.901 62.4661 101.482 62.2165 101.126 61.8779ZM103.551 55.7207C103.297 56.347 103.094 56.9902 102.942 57.6504C102.798 58.3105 102.73 58.9368 102.739 59.5293C102.747 60.1133 102.836 60.5745 103.005 60.9131C103.183 61.2432 103.466 61.4082 103.856 61.4082C104.245 61.4082 104.626 61.277 104.998 61.0146C105.379 60.7438 105.747 60.3883 106.103 59.9482C106.458 59.5081 106.793 59.0003 107.106 58.4248C107.419 57.8493 107.694 57.2484 107.931 56.6221C108.447 55.2594 108.697 54.0492 108.68 52.9912C108.68 52.0602 108.489 51.4678 108.109 51.2139C107.956 51.1123 107.74 51.0615 107.461 51.0615C107.19 51.0615 106.877 51.1885 106.522 51.4424C106.166 51.6878 105.811 52.0221 105.455 52.4453C105.1 52.8685 104.757 53.3636 104.427 53.9307C104.097 54.4977 103.805 55.0944 103.551 55.7207Z" fill="white"/>
<path d="M113.377 62.4365C113.208 62.3096 113.072 62.1699 112.971 62.0176C112.869 61.8568 112.814 61.7214 112.806 61.6113C112.797 61.4928 112.819 61.3532 112.869 61.1924C112.929 61.0231 113.005 60.82 113.098 60.583C114.824 56.3343 115.688 53.4821 115.688 52.0264C115.662 51.6201 115.523 51.3324 115.269 51.1631L115.015 50.9854C114.939 50.9261 114.896 50.8245 114.888 50.6807C114.888 50.5283 114.943 50.3844 115.053 50.249C115.163 50.1136 115.307 49.9951 115.485 49.8936C115.849 49.6989 116.221 49.6016 116.602 49.6016C116.991 49.6016 117.292 49.6439 117.503 49.7285C117.723 49.8132 117.909 49.9274 118.062 50.0713C118.383 50.376 118.544 50.6976 118.544 51.0361C118.553 51.3747 118.515 51.7174 118.43 52.0645C118.354 52.4115 118.261 52.7542 118.151 53.0928C118.041 53.4229 117.931 53.7402 117.821 54.0449C117.711 54.3411 117.639 54.5612 117.605 54.7051C117.537 55.0013 117.512 55.1875 117.529 55.2637C117.732 55.0859 117.854 54.9124 117.897 54.7432L118.392 53.8037C119.492 51.8232 120.567 50.5114 121.616 49.8682C121.921 49.6904 122.285 49.6016 122.708 49.6016C123.14 49.6016 123.487 49.7539 123.749 50.0586C124.012 50.3548 124.147 50.6849 124.155 51.0488C124.172 51.4128 124.147 51.7174 124.079 51.9629C124.02 52.1999 123.927 52.4242 123.8 52.6357C123.521 53.1097 123.182 53.3467 122.784 53.3467C122.674 53.3467 122.573 53.3086 122.48 53.2324L122.2 52.9912C121.921 52.7458 121.65 52.623 121.388 52.623C121.134 52.623 120.821 52.7923 120.448 53.1309C120.085 53.4694 119.704 53.9053 119.306 54.4385C117.969 56.2074 116.877 58.1878 116.03 60.3799L115.472 61.8525C115.328 62.2165 115.201 62.4788 115.091 62.6396C114.981 62.792 114.816 62.8682 114.596 62.8682C114.384 62.8682 114.169 62.8258 113.948 62.7412C113.737 62.665 113.546 62.5635 113.377 62.4365Z" fill="white"/>
<path d="M133.74 59.3643C133.74 60.1429 134.016 60.5322 134.566 60.5322C134.947 60.5322 135.26 60.473 135.505 60.3545C135.759 60.236 135.928 60.1768 136.013 60.1768C136.191 60.1768 136.28 60.2699 136.28 60.4561C136.28 61.1839 135.899 61.8102 135.137 62.335C134.333 62.8851 133.512 63.0205 132.674 62.7412C132.124 62.5465 131.718 62.1276 131.455 61.4844C131.328 61.1543 131.265 60.8538 131.265 60.583C131.265 60.1429 131.307 59.6774 131.392 59.1865C130.605 60.7946 129.627 61.9033 128.459 62.5127C127.994 62.7497 127.499 62.8682 126.974 62.8682C126.449 62.8682 125.992 62.7624 125.603 62.5508C125.222 62.3307 124.896 62.0303 124.625 61.6494C124.075 60.8538 123.825 59.8551 123.876 58.6533C123.927 57.1468 124.371 55.6699 125.209 54.2227C125.979 52.8685 126.953 51.764 128.129 50.9092C129.306 50.0374 130.406 49.6016 131.43 49.6016C132.454 49.6016 133.279 50.0713 133.905 51.0107C134.489 50.0713 135.006 49.6016 135.454 49.6016C135.937 49.6016 136.301 49.6904 136.546 49.8682C137.012 50.2067 137.177 50.5029 137.041 50.7568C134.917 55.1071 133.825 57.8154 133.766 58.8818C133.749 59.0342 133.74 59.195 133.74 59.3643ZM126.695 59.415C126.695 60.4307 127.02 60.9385 127.672 60.9385C128.171 60.9385 128.785 60.5153 129.513 59.6689C130.579 58.4248 131.523 56.749 132.344 54.6416C132.606 53.9814 132.826 53.3213 133.004 52.6611C132.97 52.0856 132.729 51.6624 132.28 51.3916C132.128 51.2985 131.9 51.252 131.595 51.252C131.299 51.252 130.947 51.362 130.541 51.582C130.143 51.8021 129.754 52.1025 129.373 52.4834C129.001 52.8643 128.65 53.3171 128.32 53.8418C127.998 54.3581 127.714 54.9209 127.469 55.5303C126.953 56.8337 126.695 58.1286 126.695 59.415Z" fill="white"/>
<path opacity="0.5" d="M11.4119 38.9836L5.36108 76.9389C9.48636 76.6023 15.369 75.7818 15.5549 74.6512L20.9053 39.3996L11.4119 38.9836Z" fill="url(#paint0_linear)"/>
<path opacity="0.6" d="M15.5654 74.6511C15.633 74.1539 14.598 73.595 11.8291 72.9873C11.1023 72.8278 10.7587 72.6385 10.7385 72.424L16.0021 39.2955H20.9052L15.5654 74.6511Z" fill="url(#paint1_linear)"/>
<path opacity="0.5" d="M10.747 72.338L10.7374 72.3985C10.7379 72.3786 10.7411 72.3584 10.747 72.338L21.2179 6.33144H55.5402L48.2633 62.2385C48.0158 64.8136 11.4298 69.9801 10.747 72.338Z" fill="url(#paint2_linear)"/>
<path opacity="0.5" d="M48.2648 62.2069C48.2465 61.2953 43.5603 60.7167 30.9202 60.7167C8.27529 60.7167 -0.400821 59.0523 0.0141487 56.3878L3.85117 36C8.83852 9.5 17 0.855865 56.7848 0.855865L48.2648 62.2069Z" fill="url(#paint3_linear)"/>
<path d="M48.2648 62.207C48.2465 61.2953 43.5603 60.7167 30.9202 60.7167C8.2753 60.7167 -0.400821 59.0524 0.0141488 56.3878C-0.516272 59.7937 14.9596 60.1233 28.6633 59.8596C42.367 59.5959 48.2396 60.9488 48.2648 62.207Z" fill="url(#paint4_linear)"/>
<path d="M66.4944 35.132C34.0001 42.7629 1.17771 51.2717 0.0310445 56.3006L0.0145264 56.3863C0.0189988 56.3578 0.0245068 56.3293 0.0310445 56.3006L4.41465 33.5638C9.02466 7.18599 22.09 0.0614929 56.6359 0.0614929H99.9596L98.4695 8.93129C96.2432 23.0736 90.9283 28.7473 66.4944 35.132Z" fill="url(#paint5_linear)"/>
<path d="M66.4944 35.1319C35.4778 42.4157 4.16222 50.4995 0.380981 55.5932C0.238135 55.8555 0.115901 56.1198 0.0145264 56.3861C0.0546708 56.1308 0.178252 55.8663 0.380981 55.5932C3.60905 49.664 17.3632 44.7088 38.7824 39.8845C52.5391 36.786 86.7983 31.9076 94.8786 20.173C93.941 21.7303 92.791 23.144 91.3617 24.4524C86.7422 28.6814 79.2053 31.8104 66.4944 35.1319Z" fill="url(#paint6_linear)"/>
<defs>
<linearGradient id="paint0_linear" x1="8.17791" y1="75.3791" x2="26.7725" y2="47.9721" gradientUnits="userSpaceOnUse">
<stop stop-color="#37FF8B"/>
<stop offset="0.589904" stop-color="#DB2763" stop-opacity="0.58"/>
<stop offset="1" stop-color="#DB2763" stop-opacity="0"/>
</linearGradient>
<linearGradient id="paint1_linear" x1="14.2286" y1="75.6909" x2="27.8685" y2="60.3334" gradientUnits="userSpaceOnUse">
<stop stop-color="#37FF8B" stop-opacity="0.49"/>
<stop offset="0.589904" stop-color="#DB2763" stop-opacity="0.29"/>
<stop offset="1" stop-color="#DB2763" stop-opacity="0"/>
</linearGradient>
<linearGradient id="paint2_linear" x1="29.3467" y1="54.7267" x2="41.9788" y2="11.3739" gradientUnits="userSpaceOnUse">
<stop stop-color="#37FF8B" stop-opacity="0.49"/>
<stop offset="0.589904" stop-color="#DB2763" stop-opacity="0.24"/>
<stop offset="1" stop-color="#DB2763" stop-opacity="0"/>
</linearGradient>
<linearGradient id="paint3_linear" x1="18.7144" y1="62.1725" x2="33.061" y2="16.8016" gradientUnits="userSpaceOnUse">
<stop stop-color="#37FF8B" stop-opacity="0.5"/>
<stop offset="0.589904" stop-color="#DB2763" stop-opacity="0.34"/>
<stop offset="1" stop-color="#DB2763" stop-opacity="0"/>
</linearGradient>
<linearGradient id="paint4_linear" x1="36.4676" y1="67.8365" x2="21.9005" y2="36.9654" gradientUnits="userSpaceOnUse">
<stop stop-color="#37FF8B" stop-opacity="0.5"/>
<stop offset="0.589904" stop-color="#DB2763" stop-opacity="0.34"/>
<stop offset="1" stop-color="#DB2763" stop-opacity="0"/>
</linearGradient>
<linearGradient id="paint5_linear" x1="24.8016" y1="47.2682" x2="28.5474" y2="-10.1538" gradientUnits="userSpaceOnUse">
<stop offset="0.0898" stop-color="#37FF8B" stop-opacity="0.5"/>
<stop offset="0.630208" stop-color="#DB2763" stop-opacity="0.16"/>
<stop offset="1" stop-color="#DB2763" stop-opacity="0"/>
</linearGradient>
<linearGradient id="paint6_linear" x1="13.9809" y1="48.4547" x2="54.3103" y2="2.57393" gradientUnits="userSpaceOnUse">
<stop stop-color="#37FF8B" stop-opacity="0.5"/>
<stop offset="0.627835" stop-color="#DB2763" stop-opacity="0.31"/>
<stop offset="1" stop-color="#DB2763" stop-opacity="0"/>
</linearGradient>
</defs>
</svg>
